<?xml version="1.0" encoding="utf-8"?>
<!-- Generator: Adobe Illustrator 22.1.0, SVG Export Plug-In . SVG Version: 6.00 Build 0)  -->
<svg version="1.1" id="Layer_1" xmlns="http://www.w3.org/2000/svg" xmlns:xlink="http://www.w3.org/1999/xlink" x="0px" y="0px"
	 viewBox="0 0 16 16" style="enable-background:new 0 0 16 16;" xml:space="preserve">
<style type="text/css">
	.st0{fill:#93D500;}
</style>
<g>
	<path class="st0" d="M5.8,14.6c-0.2-0.1-0.4-0.3-0.5-0.6C5.2,13.7,5,13.4,5,13c-0.1-0.4-0.2-0.8-0.2-1.2c-0.1-0.4-0.1-0.8-0.1-1.3
		c0-0.4,0-0.8-0.1-1.1c0-0.3,0-0.6,0-0.7c-0.2,0.9-0.4,1.9-0.6,2.7c-0.2,0.9-0.4,1.6-0.6,2.2c-0.2,0.6-0.4,1-0.6,1.2
		C2.5,15.1,2.2,15,2,14.7c0.2-0.6,0.4-1.1,0.6-1.6s0.3-1,0.4-1.5c0.1-0.5,0.2-1.1,0.3-1.6c0.1-0.6,0.2-1.3,0.4-2.1
		C3.8,7.1,4,6.1,4.2,5.1C4.4,4,4.6,2.7,5,1.3c0-0.1,0.1-0.2,0.2-0.2c0.1,0,0.3,0.1,0.4,0.2c0.1,0.1,0.2,0.2,0.3,0.4
		C6,1.8,6.1,1.9,6,2c0,0.4-0.1,0.9-0.1,1.5C5.8,4.1,5.8,4.7,5.7,5.3C5.7,5.9,5.6,6.6,5.6,7.2c0,0.7-0.1,1.3-0.1,1.9
		c0,0.6,0,1.2,0,1.8c0,0.6,0.1,1,0.1,1.5c0.1,0.4,0.2,0.8,0.3,1c0.1,0.3,0.3,0.4,0.5,0.4c0.1,0.1,0.3,0,0.5-0.2
		c0.2-0.2,0.4-0.5,0.6-0.9c0.2-0.4,0.5-0.9,0.7-1.5c0.3-0.6,0.5-1.2,0.8-1.9c0.3-0.7,0.5-1.4,0.7-2.1s0.5-1.5,0.7-2.2
		c0.2-0.7,0.4-1.4,0.6-2c0.2-0.6,0.3-1.2,0.4-1.7c0-0.2,0.1-0.3,0.2-0.3c0.1,0,0.2,0,0.2,0.1C11.9,1.2,12,1.3,12,1.4
		s0.1,0.2,0.1,0.3c-0.3,0.8-0.4,1.7-0.5,2.7c-0.1,1-0.1,1.9-0.1,2.8c0,0.9,0.1,1.8,0.3,2.7c0.1,0.8,0.3,1.6,0.5,2.2
		c0.2,0.6,0.5,1.1,0.8,1.5c0.3,0.4,0.6,0.5,0.9,0.4c-0.3,0.3-0.6,0.4-0.9,0.4c-0.3,0-0.5-0.2-0.8-0.5c-0.2-0.3-0.5-0.6-0.7-1.1
		c-0.2-0.4-0.4-0.9-0.6-1.5c-0.2-0.5-0.3-1.1-0.4-1.6c-0.1-0.6-0.2-1.1-0.3-1.5c-0.1,0.5-0.3,1.1-0.5,1.6c-0.2,0.6-0.4,1.1-0.7,1.6
		C9,12,8.7,12.5,8.4,13c-0.3,0.4-0.6,0.8-0.9,1.1c-0.3,0.3-0.6,0.5-0.9,0.6C6.4,14.8,6.1,14.8,5.8,14.6z"/>
</g>
</svg>
